<svg width="15" height="17" viewBox="0 0 15 17" fill="none" xmlns="http://www.w3.org/2000/svg">
<path d="M14.1657 3.33333C14.3781 3.33357 14.5824 3.4149 14.7369 3.56071C14.8913 3.70651 14.9843 3.90579 14.9967 4.11783C15.0092 4.32986 14.9402 4.53865 14.8039 4.70153C14.6675 4.8644 14.4742 4.96908 14.2632 4.99417L14.1657 5H14.0982L13.3324 14.1667C13.3324 14.8043 13.0888 15.4179 12.6513 15.8819C12.2139 16.3458 11.6157 16.6251 10.9791 16.6625L10.8324 16.6667H4.16574C2.83408 16.6667 1.74574 15.6258 1.67241 14.375L1.66824 14.2358L0.899077 5H0.83241C0.62001 4.99976 0.415717 4.91843 0.26127 4.77263C0.106823 4.62682 0.013881 4.42754 0.00143336 4.2155C-0.0110142 4.00347 0.0579723 3.79468 0.194298 3.63181C0.330623 3.46893 0.523997 3.36425 0.73491 3.33917L0.83241 3.33333H14.1657ZM9.16574 0C9.60777 0 10.0317 0.175595 10.3443 0.488155C10.6568 0.800716 10.8324 1.22464 10.8324 1.66667C10.8322 1.87907 10.7508 2.08336 10.605 2.23781C10.4592 2.39225 10.2599 2.4852 10.0479 2.49764C9.83588 2.51009 9.62709 2.4411 9.46422 2.30478C9.30134 2.16845 9.19666 1.97508 9.17158 1.76417L9.16574 1.66667H5.83241L5.82658 1.76417C5.80149 1.97508 5.69681 2.16845 5.53394 2.30478C5.37106 2.4411 5.16227 2.51009 4.95024 2.49764C4.7382 2.4852 4.53892 2.39225 4.39312 2.23781C4.24731 2.08336 4.16598 1.87907 4.16574 1.66667C4.16561 1.24619 4.32442 0.841194 4.61032 0.532877C4.89623 0.224559 5.28811 0.0357028 5.70741 0.00416676L5.83241 0H9.16574Z" fill="white"/>
<path d="M7.20889 7.54742H7.21849C7.37451 7.54022 7.51613 7.46101 7.61454 7.3386C7.70575 7.22098 7.84977 7.14657 8.01059 7.14657C8.17142 7.14657 8.31303 7.22098 8.40665 7.3386C8.50266 7.46101 8.64668 7.54022 8.8027 7.54742H8.8123C9.06193 7.56422 9.26356 7.76585 9.28276 8.01788C9.28516 8.02749 9.28516 8.03949 9.28516 8.04909V8.06109L11.2798 9.04042C11.3122 9.0558 11.339 9.08102 11.3562 9.11248C11.3734 9.14395 11.3803 9.18005 11.3758 9.21564V10.4998C11.3758 10.5622 11.3446 10.6246 11.2798 10.6558L8.30103 12.12C8.20859 12.1645 8.10719 12.1873 8.00459 12.1865V10.8807C7.90605 10.8797 7.80895 10.857 7.72016 10.8143L4.74136 9.35006C4.71514 9.33782 4.69252 9.31901 4.6757 9.29546C4.65888 9.27191 4.64842 9.24442 4.64535 9.21564C4.64088 9.18005 4.64775 9.14395 4.66499 9.11248C4.68223 9.08102 4.70895 9.0558 4.74136 9.04042L5.18542 8.82247C5.06732 8.70955 4.98 8.56836 4.93171 8.41226L4.53086 8.60908C4.4148 8.66533 4.31808 8.7548 4.25299 8.86614C4.1879 8.97747 4.15737 9.10564 4.16529 9.23436V10.4998C4.16506 10.6219 4.19909 10.7416 4.2635 10.8454C4.32791 10.9491 4.42012 11.0327 4.52966 11.0867L7.50845 12.5509L7.51013 12.5516C7.66613 12.6272 7.83723 12.6665 8.01059 12.6665C8.18395 12.6665 8.35506 12.6272 8.51106 12.5516L11.4903 11.0874C11.7421 10.965 11.8559 10.7199 11.8559 10.4998V9.23436C11.8638 9.10558 11.8333 8.97733 11.7682 8.86595C11.703 8.75456 11.6062 8.66507 11.4901 8.60884L9.71074 7.73561C9.64663 7.54787 9.52754 7.38376 9.36894 7.26459C9.21035 7.14542 9.01958 7.0767 8.82142 7.06736C8.80653 7.06367 8.79344 7.05483 8.78446 7.0424L8.78206 7.03976C8.68996 6.92343 8.57275 6.82943 8.4392 6.7648C8.30564 6.70016 8.1592 6.66656 8.01083 6.66651C7.86238 6.66614 7.71579 6.69954 7.58214 6.76416C7.44849 6.82878 7.33128 6.92294 7.23937 7.03952C7.22161 7.06064 7.20649 7.06592 7.19977 7.06736L7.18177 7.06808C7.04601 7.07588 6.91338 7.11193 6.79236 7.17393C6.67134 7.23593 6.56459 7.32251 6.47895 7.42813C6.63977 7.49966 6.75835 7.648 6.78859 7.82682C6.82793 7.74738 6.88753 7.67973 6.96136 7.63067C7.03519 7.58162 7.12042 7.5529 7.20889 7.54742Z" fill="#3BAC4B"/>
<path d="M5.48326 8.74733C5.40185 8.69884 5.33082 8.63476 5.27422 8.55877C5.21763 8.48277 5.17659 8.39636 5.15346 8.30447C5.1399 8.24908 5.13297 8.19228 5.13281 8.13525V7.91682C5.13281 7.756 5.26243 7.62158 5.42565 7.62158C5.58887 7.62158 5.72089 7.7536 5.72089 7.91682V8.13525C5.72089 8.20246 5.7761 8.25767 5.84331 8.25767C5.91051 8.25767 5.96572 8.20246 5.96572 8.13525V7.90554C5.96803 7.86021 5.98063 7.81601 6.00257 7.77628C6.02451 7.73655 6.05521 7.70234 6.09234 7.67624C6.12947 7.65015 6.17206 7.63285 6.21687 7.62567C6.26169 7.61848 6.30755 7.6216 6.35097 7.63478C6.47147 7.67199 6.55884 7.78408 6.55884 7.91682V8.13525C6.55884 8.31061 6.49356 8.4797 6.3757 8.60955L6.37402 8.61147L6.34377 8.64292C6.30281 8.68292 6.25768 8.71773 6.20839 8.74733L6.20911 8.75141L6.21007 8.75621C6.21367 8.77781 6.2156 8.80062 6.2156 8.82174L6.21632 8.8527C6.22424 9.00632 6.29024 9.14458 6.39298 9.24588C6.50425 9.35582 6.65445 9.41733 6.81087 9.41702C6.82528 9.41702 6.83944 9.41782 6.85336 9.41942L6.8548 9.41966C6.95609 9.4319 7.0449 9.48591 7.10371 9.56368L6.58764 9.81787C6.52044 9.85148 6.43882 9.85148 6.37162 9.81787L5.63736 9.45638C5.53123 9.26172 5.47584 9.04346 5.4763 8.82174C5.4763 8.79534 5.47846 8.77133 5.48326 8.74733ZM8.32403 7.94322C8.27321 7.95678 8.22438 7.97695 8.17881 8.00323C8.078 8.06324 7.95078 8.06324 7.84997 8.00323C7.79727 7.97166 7.73967 7.94911 7.67955 7.9365C7.62668 7.92563 7.57254 7.92223 7.51873 7.92642C7.41835 7.93375 7.32168 7.96746 7.23852 8.02415C7.15536 8.08085 7.08865 8.1585 7.04514 8.24926L7.04154 8.25647C7.0124 8.31873 6.99514 8.38589 6.99066 8.45449C6.98746 8.50202 6.9897 8.54818 6.99738 8.59299L7.89558 9.03537C7.96279 9.06897 8.0444 9.06897 8.1116 9.03537L9.03333 8.58171C9.04942 8.47376 9.03452 8.36347 8.99036 8.26367C8.93577 8.14147 8.84006 8.04227 8.7199 7.98333C8.59974 7.92439 8.46272 7.90944 8.33267 7.94106L8.32403 7.94322Z" fill="#3BAC4B"/>
<path fill-rule="evenodd" clip-rule="evenodd" d="M10.1806 8.89559L10.759 9.17883C10.807 9.20283 10.807 9.27004 10.759 9.29644L8.14269 10.5758C8.07548 10.6094 7.99387 10.6094 7.92666 10.5758L7.09375 10.1654C7.75624 9.14042 8.90599 8.55234 10.1806 8.89559ZM9.05241 9.08761L9.13882 8.9772C9.15802 8.9532 9.19403 8.9484 9.21803 8.9676C9.24203 8.9868 9.24683 9.02281 9.22763 9.04681L9.14122 9.15722C9.12202 9.18123 9.08601 9.18603 9.06201 9.16682C9.05034 9.15752 9.04279 9.144 9.04099 9.12918C9.0392 9.11437 9.0433 9.09944 9.05241 9.08761ZM9.63088 9.16922L9.7677 9.20043C9.79891 9.20763 9.82771 9.18843 9.83491 9.15722C9.83667 9.14996 9.83694 9.14242 9.8357 9.13506C9.83446 9.12769 9.83173 9.12065 9.82769 9.11437C9.82366 9.10809 9.81838 9.10269 9.8122 9.0985C9.80601 9.09432 9.79904 9.09143 9.7917 9.09001L9.65489 9.05881C9.64763 9.05705 9.64009 9.05678 9.63272 9.05802C9.62535 9.05926 9.61832 9.06199 9.61203 9.06603C9.60575 9.07006 9.60035 9.07534 9.59617 9.08152C9.59198 9.08771 9.58909 9.09468 9.58768 9.10202C9.58288 9.13082 9.60208 9.16202 9.63088 9.16922ZM8.91799 9.41406C8.91058 9.41295 8.90303 9.41332 8.89576 9.41514C8.8885 9.41695 8.88166 9.42018 8.87564 9.42464C8.86963 9.4291 8.86454 9.43469 8.86069 9.44112C8.85684 9.44754 8.85428 9.45466 8.85318 9.46206C8.85208 9.46947 8.85244 9.47702 8.85426 9.48429C8.85608 9.49155 8.8593 9.49839 8.86376 9.50441C8.86822 9.51043 8.87382 9.51551 8.88024 9.51936C8.88666 9.52322 8.89378 9.52577 8.90119 9.52687L9.04041 9.54847C9.04781 9.54958 9.05537 9.54921 9.06263 9.5474C9.0699 9.54558 9.07673 9.54235 9.08275 9.53789C9.08877 9.53344 9.09385 9.52784 9.09771 9.52141C9.10156 9.51499 9.10411 9.50788 9.10521 9.50047C9.10632 9.49306 9.10595 9.48551 9.10414 9.47824C9.10232 9.47098 9.09909 9.46414 9.09463 9.45812C9.09018 9.4521 9.08458 9.44702 9.07816 9.44317C9.07173 9.43931 9.06462 9.43676 9.05721 9.43566L8.91799 9.41406ZM8.78837 9.94213C8.78538 9.9489 8.78375 9.9562 8.78357 9.96361C8.7834 9.97102 8.78469 9.97839 8.78736 9.9853C8.79004 9.99221 8.79405 9.99852 8.79916 10.0039C8.80428 10.0092 8.8104 10.0135 8.81718 10.0165C8.82395 10.0195 8.83125 10.0212 8.83866 10.0213C8.84607 10.0215 8.85344 10.0202 8.86035 10.0175C8.86726 10.0149 8.87357 10.0109 8.87893 10.0057C8.88429 10.0006 8.88859 9.99451 8.89159 9.98773L8.94919 9.86052C8.9612 9.83171 8.94919 9.79811 8.92039 9.78611C8.89159 9.7741 8.86038 9.78611 8.84598 9.81491L8.78837 9.94213ZM8.35872 10.199C8.38992 10.2062 8.41872 10.187 8.42593 10.1558C8.42768 10.1485 8.42795 10.141 8.42671 10.1336C8.42547 10.1262 8.42275 10.1192 8.41871 10.1129C8.41467 10.1066 8.4094 10.1012 8.40321 10.097C8.39703 10.0928 8.39005 10.09 8.38272 10.0885L8.2459 10.0573C8.23864 10.0556 8.2311 10.0553 8.22373 10.0566C8.21637 10.0578 8.20933 10.0605 8.20305 10.0646C8.19676 10.0686 8.19137 10.0739 8.18718 10.0801C8.18299 10.0862 8.18011 10.0932 8.17869 10.1005C8.17149 10.1294 8.19069 10.1606 8.2219 10.1678L8.35872 10.199ZM9.62848 9.65889L9.7269 9.56048C9.7485 9.53887 9.7485 9.50287 9.7269 9.48127C9.71634 9.47086 9.70211 9.46502 9.68729 9.46502C9.67247 9.46502 9.65824 9.47086 9.64769 9.48127L9.54927 9.57968C9.52767 9.60128 9.52767 9.63729 9.54927 9.65889C9.57088 9.68049 9.60688 9.68049 9.62848 9.65889ZM8.50514 9.33005L8.60355 9.23163C8.62515 9.21003 8.62515 9.17403 8.60355 9.15242C8.59299 9.14201 8.57877 9.13618 8.56394 9.13618C8.54912 9.13618 8.53489 9.14201 8.52434 9.15242L8.42593 9.25084C8.40432 9.27244 8.40432 9.30844 8.42593 9.33005C8.44753 9.35165 8.48353 9.35165 8.50514 9.33005ZM10.423 9.27244L10.3102 9.18843C10.2984 9.17932 10.2834 9.17522 10.2686 9.17701C10.2538 9.17881 10.2403 9.18636 10.231 9.19803C10.2118 9.22203 10.2166 9.25804 10.2406 9.27724L10.351 9.36365C10.375 9.38285 10.411 9.37805 10.4302 9.35405C10.4518 9.32765 10.447 9.29164 10.423 9.27244ZM8.10428 9.7237L8.2099 9.63249C8.2339 9.61328 8.2363 9.57728 8.2171 9.55328C8.20749 9.54191 8.19379 9.53478 8.17897 9.53343C8.16415 9.53209 8.14939 9.53663 8.13789 9.54607L8.03227 9.63729C8.00827 9.65649 8.00587 9.69249 8.02507 9.7165C8.04427 9.7405 8.08028 9.7429 8.10428 9.7237ZM7.55941 10.0069L7.61222 10.1366C7.62422 10.1654 7.65782 10.1798 7.68663 10.1678C7.70054 10.1619 7.7116 10.1508 7.71743 10.1369C7.72327 10.123 7.72341 10.1074 7.71783 10.0933L7.66503 9.96373C7.65918 9.94982 7.64811 9.93876 7.6342 9.93292C7.62028 9.92709 7.60463 9.92695 7.59062 9.93252C7.55941 9.94693 7.54741 9.98053 7.55941 10.0069Z" fill="#3BAC4B"/>
</svg>
